# xmcd CD database file
#
# Track frame offsets:
#	150
#	32917
#	48929
#	65253
#	79842
#	95702
#	109462
#	140272
#	166061
#	185134
#	200084
#	214427
#	229045
#
# Disc length: 3352 seconds
#
# Revision: 0
# Processed by: cddbd v1.4PL0 Copyright (c) Steve Scherf et al.
# Submitted via: CDex 1.50
#
DISCID=c00d160d
DTITLE=Schnuckenack Reinhardt - Schnuckenack live
DYEAR=1998
DGENRE=Jazz
TTITLE0=After you've gone
TTITLE1=Minor Swing
TTITLE2=Czardas
TTITLE3=Schwarze Augen
TTITLE4=Fuli Tschai
TTITLE5=Me hum matto
TTITLE6=Limehouse-Blues
TTITLE7=Days of Wine and Roses
TTITLE8=Trauriger Sonntag
TTITLE9=Summertime
TTITLE10=Bei mir bist du schön
TTITLE11=Some of these Days
TTITLE12=Sweet Georgia Brown
EXTD=YEAR: 1998
EXTT0=
EXTT1=
EXTT2=
EXTT3=
EXTT4=
EXTT5=
EXTT6=
EXTT7=
EXTT8=
EXTT9=
EXTT10=
EXTT11=
EXTT12=
PLAYORDER=
